# xmcd CD database file
#
# Track frame offsets:
#	150
#	21149
#	45206
#	64126
#	82851
#	102322
#	122563
#	144587
#	163511
#	187051
#
# Disc length: 2693 seconds
#
# Revision: 3
# Processed by: cddbd v1.5.1PL0 Copyright (c) Steve Scherf et al.
# Submitted via: CDex 1.51
#
DISCID=7a0a830a
DTITLE=Various Artist - Eagle's Prayer
DYEAR=2002
DGENRE=Country
TTITLE0=Blue Sea Dream -- Konrad Rhee 
TTITLE1=Flight of the Eagle -- Laughing Cat 
TTITLE2=Mantra Mantra -- Konrad Rhee 
TTITLE3=Eagle Ceremony -- Laughing Cat 
TTITLE4=Sea Wolf and Sea Bear -- Konrad Rhee 
TTITLE5=Eagle Feather -- Laughing Cat 
TTITLE6=Eagle Dance -- Laughing Cat 
TTITLE7=Deep -- Konrad Rhee 
TTITLE8=The Eagle and The Butterfly -- Laughing Cat 
TTITLE9=In The Next Life --Jojo 
EXTD=YEAR: 2002
EXTT0=
EXTT1=
EXTT2=
EXTT3=
EXTT4=
EXTT5=
EXTT6=
EXTT7=
EXTT8=
EXTT9=
PLAYORDER=
